- 
http://www.Speed.Cd      fast  and The Hottest Private Tracker on the net

(((--Submit for invite!!--)))

Please Seed back to make the speed Faster!!!

------------------nfo--------------------------
-[align=center]
        [/align]
[size=3][color=#009999]



      Hugo 2011 720p CAM XVID AC3 - Xtreme Encode



[/color][/size]


[size=3]
[color=#CC9933]General


Complete name                    : Hugo 2011 720p CAM XVID AC3 - Xtreme Encode.avi
Format                           : AVI
Format/Info                      : Audio Video Interleave
File size                        : 1.44 GiB
Duration                         : 2h 0mn
Overall bit rate                 : 1 704 Kbpss[/color][/size]




[size=3][color=#669900]
Video


ID                               : 0
Format                           : MPEG-4 Visual
Format profile                   : Advanced Simple@L5
Format settings, BVOP            : 2
Format settings, QPel            : No
Format settings, GMC             : No warppoints
Format settings, Matrix          : Default (H.263)
Muxing mode                      : Packed bitstream
Codec ID                         : XVID
Codec ID/Hint                    : XviD
Duration                         : 2h 0mn
Bit rate                         : 1 503 Kbps
Width                            : 1 280 pixels
Height                           : 720 pixels
Display aspect ratio             : 16:9
Frame rate                       : 24.000 fps
Color space                      : YUV
Chroma subsampling               : 4:2:0
Bit depth                        : 8 bits
Scan type                        : Progressive
Compression mode                 : Lossy
Bits/(Pixel*Frame)               : 0.068
Stream size                      : 1.27 GiB (88%)[/color][/size]





[size=3][color=#009900]
Audio


ID                               : 1
Format                           : AC-3
Format/Info                      : Audio Coding 3
Mode extension                   : CM (complete main)
Codec ID                         : 2000
Duration                         : 2h 0mn
Bit rate mode                    : Constant
Bit rate                         : 192 Kbps
Channel(s)                       : 2 channels
Channel positions                : Front: L R
Sampling rate                    : 44.1 KHz
Bit depth                        : 16 bits
Compression mode                 : Lossy
Stream size                      : 166 MiB (11%)
Alignment                        : Aligned on interleaves
Interleave, duration             : 42 ms (1.00 video frame)
Interleave, preload duration     : 522 ms[/color][/size]





[size=3][color=#6699FF]
SOURCE
Video : CaM XviD - ILLUMINATI

Audio : CaM XviD - ILLUMINATI


in sync guys :)

JUST A LITTLE MESS WITH THIS ADDES BIT OF CONTRAS 
RESIZED BIT TWEAKED BIT SHARPEN in 
SAT HUE and few othere things :)[/color][/size]




[size=3][color=#0099CC]PLOT
Set in 1930s Paris, an orphan who lives in the walls of a train station 
is wrapped up in a mystery involving his late father and an automaton. 


 [/color][/size]


[size=3][color=#CC6600]Genres: Adventure | Drama | Family | Fantasy | Mystery



Director: Martin Scorsese

Writers: John Logan (screenplay), Brian Selznick (book)

Stars: Asa Butterfield, Chlo Grace Moretz and Christopher Lee  [/color][/size]


[size=3][color=#0033FF]IMDB: http://www.imdb.com/title/tt0970179/[/color][/size]



[size=3][color=#996600]HOPE U ALL LIKE THIS IF SO PLS REP :)[/color][/size]


[size=3][color=#CC0000]
SCREENS:





[/color][/size]


[size=3][b][font=Times New Roman][color=#3366CC]
      GREETS:

IMAGiNE / ELEKTRI4KA / FLAWL3SS  
ViSiON / CRYS / BMB / MiSTERE
AMB / FYA / Jamie111 / VISUALiSE  
ILLUMINATI / Rx / REFiLL / BHRG
TO MY FRIENDS  AND ALL OTHER GROUPS  :)[/color][/font][/b][/size]